# xmcd CD database file
#
# Track frame offsets:
#	150
#	16557
#	31969
#	46728
#	59715
#	77852
#	92727
#	104344
#	128109
#	145472
#	160913
#
# Disc length: 2280 seconds
#
# Revision: 1
# Processed by: cddbd v1.5.2PL0 Copyright (c) Steve Scherf et al.
# Submitted via: CDex 1.51
#
DISCID=8b08e60b
DTITLE=Rail Road Riders - Let's Ride 1
DYEAR=2007
DGENRE=Country
TTITLE0=RRR - Railroad Train
TTITLE1=RRR - Berndid
TTITLE2=RRR - Swing Low
TTITLE3=RRR - Sweet Heart
TTITLE4=RRR - The River
TTITLE5=RRR - Goldrush
TTITLE6=RRR - Ghostriders
TTITLE7=RRR - Your War
TTITLE8=RRR - I Think I've Seen The Light
TTITLE9=RRR - On The Run
TTITLE10=RRR - Right Or Wrong
EXTD=YEAR: 2007
EXTT0=
EXTT1=
EXTT2=
EXTT3=
EXTT4=
EXTT5=
EXTT6=
EXTT7=
EXTT8=
EXTT9=
EXTT10=
PLAYORDER=
